:FULLY-SPECIFIED
:FORCE-ALL-JOINTS-BE-3DOF
:DEGREES
408
root 7.33458 13.7654 -34.1753 159.905 74.8594 153.414
lfemur 18.8799 -2.88737 -10.094
ltibia 23.3866 -0 0
lfoot -23.1422 33.4131 -0.0089924
ltoes -26.8463 0 0
rfemur -67.0258 -16.8287 8.70838
rtibia 80.6867 -0 0
rfoot -15.2892 13.4826 0.0678076
rtoes 9.76509 -0 0
lowerback 8.27613 5.03045 -11.7609
upperback -2.59021 5.36184 -1.30106
thorax -8.43801 3.18202 4.276
lowerneck 0.771608 -11.8502 -11.5408
upperneck 3.01672 -16.1302 9.57421
head 2.45223 -8.06562 4.12526
lclavicle 1.7375e-14 3.83406e-14 0
lhumerus -70.895 -19.7078 105.899
lradius 100.439 -0 0
lwrist 51.0678 0 0
lhand -9.61873 43.0085 -0.0108977
lfingers 7.12502 -0 0
lthumb 16.3515 72.3513 -0.00866979
rclavicle 1.7375e-14 3.83406e-14 0
rhumerus 49.5752 -4.57612 -59.4115
rradius 18.9309 -0 0
rwrist 19.1589 0 0
rhand -22.1858 -33.2378 -0.00197471
rfingers 7.12502 -0 0
rthumb 4.22979 -63.1873 -0.00403109
409
root 7.28676 13.7721 -34.2018 159.716 74.9651 153.311
lfemur 18.8201 -2.80791 -10.152
ltibia 23.5048 -0 0
lfoot -23.2121 33.3343 -0.00605577
ltoes -26.8312 0 0
rfemur -66.805 -16.6914 8.5838
rtibia 80.263 -0 0
rfoot -14.9717 13.3935 0.0457972
rtoes 9.89242 -0 0
lowerback 8.31532 4.9858 -11.7396
upperback -2.58521 5.30227 -1.26049
thorax -8.44543 3.15317 4.32159
lowerneck 0.703185 -11.7814 -11.4867
upperneck 3.08281 -16.0301 9.47632
head 2.46911 -8.01531 4.09282
lclavicle 1.7375e-14 3.83406e-14 0
lhumerus -70.6821 -19.7818 106.076
lradius 100.388 -0 0
lwrist 51.0765 0 0
lhand -9.68512 42.9797 -0.0074246
lfingers 7.12502 -0 0
lthumb 16.2874 72.324 -0.00589376
rclavicle 1.7375e-14 3.83406e-14 0
rhumerus 49.4643 -4.33211 -59.4408
rradius 19.2625 -0 0
rwrist 18.8976 0 0
rhand -22.0222 -33.2045 -0.00127449
rfingers 7.12502 -0 0
rthumb 4.38766 -63.147 -0.00266391
410
root 7.2373 13.7786 -34.2291 159.514 75.0739 153.199
lfemur 18.7472 -2.72839 -10.2143
ltibia 23.6402 -0 0
lfoot -23.2847 33.253 -0.00305485
ltoes -26.8031 0 0
rfemur -66.5702 -16.5423 8.45052
rtibia 79.8083 -0 0
rfoot -14.63 13.3019 0.0231676
rtoes 10.0235 -0 0
lowerback 8.35963 4.93917 -11.7174
upperback -2.57902 5.23963 -1.2187
thorax -8.4539 3.12281 4.36853
lowerneck 0.630641 -11.7097 -11.429
upperneck 3.15087 -15.9253 9.37363
head 2.4866 -7.9627 4.05855
lclavicle 1.7375e-14 3.83406e-14 0
lhumerus -70.4572 -19.8639 106.263
lradius 100.335 -0 0
lwrist 51.0864 0 0
lhand -9.76156 42.949 -0.00378819
lfingers 7.12502 -0 0
lthumb 16.2135 72.2953 -0.00300052
rclavicle 1.7375e-14 3.83406e-14 0
rhumerus 49.3492 -4.08022 -59.4766
rradius 19.6109 -0 0
rwrist 18.6326 0 0
rhand -21.8527 -33.1719 -0.000615768
rfingers 7.12502 -0 0
rthumb 4.55118 -63.1071 -0.00131891
411
root 7.1863 13.7847 -34.2571 159.297 75.1858 153.078
lfemur 18.6608 -2.64898 -10.2808
ltibia 23.7931 0 0
lfoot -23.3599 33.1691 0
ltoes -26.7615 0 0
rfemur -66.3214 -16.3813 8.30861
rtibia 79.3225 0 0
rfoot -14.2636 13.2081 0
rtoes 10.1582 0 0
lowerback 8.40914 4.89058 -11.6943
upperback -2.57162 5.17394 -1.17575
thorax -8.46346 3.09095 4.41678
lowerneck 0.553975 -11.6349 -11.3675
upperneck 3.2208 -15.8159 9.26617
head 2.50468 -7.9078 4.02246
lclavicle -4.1869e-14 -3.57812e-15 0
lhumerus -70.2204 -19.9544 106.459
lradius 100.279 0 0
lwrist 51.0973 0 0
lhand -9.84827 42.9166 0
lfingers 7.12502 0 0
lthumb 16.1298 72.2654 0
rclavicle -4.1869e-14 -3.57812e-15 0
rhumerus 49.2299 -3.82067 -59.519
rradius 19.9761 0 0
rwrist 18.3642 0 0
rhand -21.6774 -33.1399 0
rfingers 7.12502 0 0
rthumb 4.72027 -63.0674 0
412
root 7.13856 13.7903 -34.2818 159.69 75.2012 153.527
lfemur 18.3352 -2.78298 -10.2692
ltibia 24.3457 -0 0
lfoot -23.3542 33.0589 -0.000793266
ltoes -26.8082 0 0
rfemur -66.1696 -16.2693 8.26082
rtibia 79.0483 -0 0
rfoot -14.0994 13.116 -0.0105814
rtoes 9.93957 -0 0
lowerback 8.487 4.85706 -11.6172
upperback -2.53832 5.13331 -1.12461
thorax -8.4631 3.06754 4.43581
lowerneck 0.598109 -11.656 -11.3831
upperneck 3.18068 -15.8496 9.33102
head 2.49667 -7.92512 4.04581
lclavicle -4.1869e-14 -3.57812e-15 0
lhumerus -70.0863 -20.2234 106.444
lradius 100.284 -0 0
lwrist 51.0178 0 0
lhand -9.78345 42.9116 -0.000157925
lfingers 7.12502 -0 0
lthumb 16.1922 72.2553 -0.000169969
rclavicle -4.1869e-14 -3.57812e-15 0
rhumerus 49.0073 -3.76338 -59.2546
rradius 20.4768 -0 0
rwrist 17.6092 0 0
rhand -21.451 -33.2673 -0.0196518
rfingers 7.12502 -0 0
rthumb 4.93859 -63.182 -0.0172385
413
root 7.09837 13.7952 -34.2994 160.135 75.2154 154.035
lfemur 17.9589 -2.93794 -10.2559
ltibia 24.9791 -0 0
lfoot -23.3468 32.9359 -0.00166824
ltoes -26.8507 0 0
rfemur -65.9964 -16.1396 8.20515
rtibia 78.7322 -0 0
rfoot -13.9081 13.0142 -0.0221627
rtoes 9.68973 -0 0
lowerback 8.57741 4.8195 -11.5304
upperback -2.49992 5.08758 -1.06774
thorax -8.46324 3.04118 4.4563
lowerneck 0.647637 -11.6805 -11.4
upperneck 3.13404 -15.8884 9.40472
head 2.48736 -7.94511 4.07216
lclavicle -4.1869e-14 -3.57812e-15 0
lhumerus -69.9342 -20.5302 106.426
lradius 100.289 -0 0
lwrist 50.9284 0 0
lhand -9.7156 42.9058 -0.000325918
lfingers 7.12502 -0 0
lthumb 16.2575 72.2441 -0.000354369
rclavicle -4.1869e-14 -3.57812e-15 0
rhumerus 48.7578 -3.70223 -58.9597
rradius 21.0413 -0 0
rwrist 16.7652 0 0
rhand -21.1979 -33.4135 -0.0412243
rfingers 7.12502 -0 0
rthumb 5.18266 -63.3137 -0.0361643
414
root 7.06509 13.7994 -34.3104 160.627 75.2281 154.6
lfemur 17.5344 -3.1128 -10.2406
ltibia 25.6892 -0 0
lfoot -23.3378 32.8009 -0.00261213
ltoes -26.8891 0 0
rfemur -65.8031 -15.9929 8.14217
rtibia 78.3762 -0 0
rfoot -13.6912 12.9033 -0.0345604
rtoes 9.41022 -0 0
lowerback 8.67976 4.77805 -11.4344
upperback -2.4567 5.03699 -1.00546
thorax -8.46385 3.012 4.47817
lowerneck 0.702281 -11.7082 -11.4182
upperneck 3.08116 -15.9322 9.48683
head 2.47681 -7.96764 4.10137
lclavicle -4.1869e-14 -3.57812e-15 0
lhumerus -69.7649 -20.8728 106.405
lradius 100.295 -0 0
lwrist 50.8297 0 0
lhand -9.64498 42.8993 -0.000501236
lfingers 7.12502 -0 0
lthumb 16.3255 72.2319 -0.000549302
rclavicle -4.1869e-14 -3.57812e-15 0
rhumerus 48.4831 -3.63704 -58.6362
rradius 21.6661 -0 0
rwrist 15.837 0 0
rhand -20.9195 -33.5775 -0.0643711
rfingers 7.12502 -0 0
rthumb 5.45114 -63.4616 -0.0564741
415
root 7.0381 13.8032 -34.3153 161.166 75.2389 155.217
lfemur 17.0642 -3.30651 -10.2229
ltibia 26.472 -0 0
lfoot -23.3271 32.6544 -0.00361164
ltoes -26.9233 0 0
rfemur -65.5907 -15.83 8.07245
rtibia 77.9825 -0 0
rfoot -13.4498 12.7837 -0.047587
rtoes 9.10263 -0 0
lowerback 8.7934 4.73289 -11.3297
upperback -2.40892 4.9818 -0.938087
thorax -8.46492 2.98017 4.50132
lowerneck 0.761765 -11.7391 -11.4376
upperneck 3.02234 -15.9807 9.57693
head 2.46507 -7.99258 4.13327
lclavicle -4.1869e-14 -3.57812e-15 0
lhumerus -69.579 -21.2494 106.38
lradius 100.302 -0 0
lwrist 50.7222 0 0
lhand -9.5718 42.8919 -0.00068117
lfingers 7.12502 -0 0
lthumb 16.396 72.2187 -0.000750952
rclavicle -4.1869e-14 -3.57812e-15 0
rhumerus 48.1844 -3.56761 -58.2856
rradius 22.348 -0 0
rwrist 14.8294 0 0
rhand -20.6171 -33.7584 -0.0887384
rfingers 7.12502 -0 0
rthumb 5.74268 -63.625 -0.0778579
416
root 7.01676 13.8064 -34.3147 161.748 75.2474 155.885
lfemur 16.5506 -3.51798 -10.2024
ltibia 27.3235 -0 0
lfoot -23.3149 32.4973 -0.00465308
ltoes -26.9535 0 0
rfemur -65.3604 -15.6517 7.99655
rtibia 77.5531 -0 0
rfoot -13.1854 12.656 -0.0610535
rtoes 8.76849 -0 0
lowerback 8.91771 4.68416 -11.217
upperback -2.35685 4.92226 -0.865949
thorax -8.46644 2.94584 4.52567
lowerneck 0.825811 -11.7729 -11.4581
upperneck 2.95786 -16.0336 9.6746
head 2.45221 -8.01979 4.16771
lclavicle -4.1869e-14 -3.57812e-15 0
lhumerus -69.3774 -21.6579 106.353
lradius 100.31 -0 0
lwrist 50.6064 0 0
lhand -9.4963 42.8839 -0.000863065
lfingers 7.12502 -0 0
lthumb 16.4687 72.2046 -0.000955618
rclavicle -4.1869e-14 -3.57812e-15 0
rhumerus 47.8635 -3.49375 -57.9096
rradius 23.0838 -0 0
rwrist 13.7468 0 0
rhand -20.2922 -33.9553 -0.113969
rfingers 7.12502 -0 0
rthumb 6.05595 -63.8031 -0.100003
